<?xml version="1.0" encoding="utf-8"?>
<svg viewBox="0 0 122.88 117.42" xmlns="http://www.w3.org/2000/svg">
  <path d="M 66.71 3.55 L 81.1 37.26 L 117.68 40.54 L 117.68 40.53 C 119.23 40.66 120.59 41.42 121.53 42.54 C 122.5 43.687 122.975 45.173 122.85 46.67 L 122.85 46.68 C 122.732 48.034 122.133 49.301 121.16 50.25 C 121.04 50.38 120.91 50.5 120.77 50.61 L 93.25 74.64 L 101.44 110.47 C 101.79 112 101.49 113.53 100.71 114.76 C 99.913 116.038 98.639 116.945 97.17 117.28 L 97.03 117.31 C 96.32 117.45 95.6 117.46 94.91 117.33 L 94.91 117.34 C 94.16 117.21 93.44 116.92 92.8 116.5 L 92.75 116.47 L 61.45 97.76 L 29.9 116.62 C 27.209 118.239 23.714 117.36 22.11 114.66 C 21.73 114.02 21.49 113.33 21.38 112.64 C 21.28 112.01 21.29 111.37 21.4 110.75 C 21.42 110.62 21.44 110.48 21.48 110.35 L 29.64 74.65 C 20.4 66.58 10.9 58.55 1.81 50.35 L 1.73 50.27 C 0.715 49.295 0.101 47.975 0.01 46.57 C -0.09 45.12 0.37 43.64 1.41 42.45 L 1.53 42.32 L 1.61 42.24 C 2.605 41.211 3.951 40.597 5.38 40.52 L 5.44 40.52 L 41.78 37.26 L 56.22 3.46 C 56.83 2.02 57.98 0.96 59.33 0.41 C 60.68 -0.13 62.23 -0.16 63.67 0.45 C 64.36 0.74 64.97 1.16 65.47 1.67 C 66 2.2 66.41 2.82 66.69 3.49 L 66.71 3.55 Z M 44.944 48.023 L 60.132 3.101 C 60.112 3.049 61.799 5.41 61.76 5.37 C 61.72 5.331 61.672 5.3 61.62 5.28 C 61.509 5.23 61.381 5.23 61.27 5.28 C 61.17 5.32 63.695 7.791 63.645 7.911 L 75.622 48.353 C 75.252 49.213 98.888 107.927 97.888 108.017 L 5.9 45.73 C 5.82 45.74 5.74 45.75 5.66 45.75 C 5.6 45.75 5.53 45.77 5.48 45.8 C 5.45 45.81 5.43 45.83 5.41 45.85 L 5.31 45.97 C 5.26 46.05 5.24 46.14 5.25 46.23 C 5.26 46.32 5.29 46.41 5.34 46.48 C 5.4 46.53 3.147 45.333 3.207 45.393 C 3.207 45.393 109.488 40.121 42.564 67.933 C 43.334 68.543 71.046 89.916 70.816 90.946 L 26.59 111.52 L 26.56 111.66 C 26.55 111.72 26.54 111.78 26.55 111.83 C 26.581 112.004 26.709 112.144 26.88 112.19 C 27 112.22 23.201 113.017 23.301 112.957 L 60.07 92.51 C 60.87 92.01 35.317 64.166 36.187 64.686 L 93.812 107.341 C 93.892 107.381 95.59 112.09 95.67 112.14 C 95.72 112.17 95.77 112.19 95.83 112.2 L 95.83 112.21 C 95.87 112.22 95.92 112.22 95.97 112.21 L 96.01 112.2 C 96.13 112.17 96.23 112.1 96.29 112 C 96.35 111.91 96.325 113.212 96.295 113.092 L 28.847 69.676 C 28.63 68.738 87.903 72.361 88.63 71.73 L 118.048 44.03 C 118.088 44 117.56 46.45 117.59 46.4 C 117.61 46.36 117.62 46.3 117.63 46.23 C 117.64 46.113 117.608 45.996 117.54 45.9 C 117.461 45.816 117.355 45.762 117.24 45.75 L 117.24 45.74 C 117.23 45.74 117.21 45.74 117.21 45.73 L 86.676 78.552 C 85.676 78.542 45.354 48.993 44.944 48.023 Z" fill="#ffcf00"/>
</svg>